<svg width="60" height="50" viewBox="0 0 60 50" fill="none" xmlns="http://www.w3.org/2000/svg">
    <path opacity="0.2" fill-rule="evenodd" clip-rule="evenodd"
        d="M21.6727 0.448592C8.80074 8.71123 1.65022 18.327 0.219437 29.3012C-2.00794 46.3817 13.2743 54.7418 21.018 47.2309C28.7617 39.7183 24.1206 30.1845 18.5137 27.5772C12.9068 24.9717 9.47767 25.8789 10.076 22.3951C10.6743 18.9131 18.6504 9.25626 25.6591 4.75931C25.9074 4.54822 26.0659 4.25038 26.1021 3.92654C26.1383 3.6027 26.0496 3.27725 25.8539 3.01657L24.1206 0.762969C23.3684 -0.214332 22.6471 -0.176744 21.6727 0.446883M55.5637 0.448592C42.6918 8.71123 35.5395 18.3288 34.1105 29.3012C31.8831 46.3817 47.1653 54.7418 54.909 47.2309C62.6527 39.7183 58.0116 30.1845 52.403 27.5772C46.7961 24.9717 43.367 25.8789 43.9653 22.3951C44.5636 18.9131 52.5415 9.25626 59.5501 4.75931C59.7982 4.54798 59.9563 4.25003 59.9922 3.9262C60.0281 3.60237 59.9391 3.27705 59.7433 3.01657L58.0099 0.762969C57.2578 -0.214332 56.5364 -0.176744 55.5637 0.446883"
        fill="black" />
</svg>