<svg width="20" height="20" viewBox="0 0 20 20" fill="none" xmlns="http://www.w3.org/2000/svg">
<g id="rt-icon-lamp-1">
<path id="Vector" fill-rule="evenodd" clip-rule="evenodd" d="M10 0C10.2449 3.23106e-05 10.4813 0.0899562 10.6644 0.252715C10.8474 0.415475 10.9643 0.639749 10.993 0.883L11 1V2.1L19.175 10.276C19.784 10.884 19.398 11.906 18.575 11.994L18.461 12H14.9C14.6724 13.1105 14.0743 14.1108 13.2038 14.8369C12.3333 15.563 11.2419 15.9719 10.1086 15.9965C8.97524 16.0211 7.86715 15.6601 6.96589 14.9725C6.06463 14.2849 5.42365 13.3116 5.148 12.212L5.1 12H1.539C0.677996 12 0.228996 11.004 0.747996 10.361L0.824996 10.276L9 2.1V1C9 0.734784 9.10535 0.48043 9.29289 0.292893C9.48043 0.105357 9.73478 0 10 0ZM12.83 12H7.17C7.3716 12.5703 7.74082 13.0663 8.22926 13.4231C8.7177 13.7799 9.30256 13.9808 9.90714 13.9994C10.5117 14.018 11.1078 13.8534 11.6173 13.5273C12.1267 13.2012 12.5257 12.7288 12.762 12.172L12.83 12ZM16.071 10L10.07 3.998L10 4L9.932 3.998L3.93 10H16.071Z" fill="black"/>
<path id="ray" d="M5.34278 15.657C5.34278 15.3918 5.23747 15.1375 5.05 14.95C4.86247 14.7625 4.60816 14.6572 4.343 14.6572C4.07783 14.6572 3.82352 14.7625 3.636 14.95L2.929 15.657C2.74684 15.8456 2.64604 16.0982 2.64832 16.3604C2.6506 16.6226 2.75577 16.8734 2.94118 17.0588C3.12659 17.2442 3.3774 17.3494 3.6396 17.3517C3.90179 17.3539 4.15439 17.2532 4.343 17.071L5.05 16.364C5.23747 16.1765 5.34278 15.9222 5.34278 15.657Z" fill="black"/>
<path id="ray_2" d="M10.7071 17.2929C10.5196 17.1054 10.2652 17 10 17C9.73478 17 9.48043 17.1054 9.29289 17.2929C9.10536 17.4804 9 17.7348 9 18V19C9 19.2652 9.10536 19.5196 9.29289 19.7071C9.48043 19.8946 9.73478 20 10 20C10.2652 20 10.5196 19.8946 10.7071 19.7071C10.8946 19.5196 11 19.2652 11 19V18C11 17.7348 10.8946 17.4804 10.7071 17.2929Z" fill="black"/>
<path id="ray_3" d="M15.5943 14.6591C15.3513 14.6744 15.1222 14.7778 14.95 14.95C14.7625 15.1375 14.6572 15.3918 14.6572 15.657C14.6572 15.9222 14.7625 16.1765 14.95 16.364L15.657 17.071L15.751 17.154C15.952 17.3094 16.2046 17.3825 16.4575 17.3584C16.7104 17.3343 16.9447 17.2148 17.1127 17.0243C17.2808 16.8337 17.37 16.5863 17.3622 16.3324C17.3545 16.0784 17.2503 15.837 17.071 15.657L16.364 14.95L16.27 14.867C16.0776 14.7177 15.8373 14.6438 15.5943 14.6591Z" fill="black"/>
</g>
</svg>
