<svg width="28" height="28" viewBox="0 0 28 28" fill="none" xmlns="http://www.w3.org/2000/svg">
    <path
        d="M8.4 6.9762C8.0287 6.9762 7.6726 7.1237 7.41005 7.38625C7.1475 7.6488 7 8.00489 7 8.3762C7 8.7475 7.1475 9.10359 7.41005 9.36615C7.6726 9.6287 8.0287 9.7762 8.4 9.7762H19.6C19.9713 9.7762 20.3274 9.6287 20.59 9.36615C20.8525 9.10359 21 8.7475 21 8.3762C21 8.00489 20.8525 7.6488 20.59 7.38625C20.3274 7.1237 19.9713 6.9762 19.6 6.9762H8.4ZM7 14C7 13.6287 7.1475 13.2726 7.41005 13.01C7.6726 12.7475 8.0287 12.6 8.4 12.6H19.6C19.9713 12.6 20.3274 12.7475 20.59 13.01C20.8525 13.2726 21 13.6287 21 14C21 14.3713 20.8525 14.7274 20.59 14.9899C20.3274 15.2525 19.9713 15.4 19.6 15.4H8.4C8.0287 15.4 7.6726 15.2525 7.41005 14.9899C7.1475 14.7274 7 14.3713 7 14ZM8.4 18.2238C8.0287 18.2238 7.6726 18.3713 7.41005 18.6338C7.1475 18.8964 7 19.2525 7 19.6238C7 19.9951 7.1475 20.3512 7.41005 20.6137C7.6726 20.8763 8.0287 21.0238 8.4 21.0238H19.6C19.9713 21.0238 20.3274 20.8763 20.59 20.6137C20.8525 20.3512 21 19.9951 21 19.6238C21 19.2525 20.8525 18.8964 20.59 18.6338C20.3274 18.3713 19.9713 18.2238 19.6 18.2238H8.4Z"
        fill="black" />
    <path fill-rule="evenodd" clip-rule="evenodd"
        d="M28 14C28 21.7322 21.7322 28 14 28C6.2678 28 0 21.7322 0 14C0 6.2678 6.2678 0 14 0C21.7322 0 28 6.2678 28 14ZM25.2 14C25.2 16.9704 24.02 19.8192 21.9196 21.9196C19.8192 24.02 16.9704 25.2 14 25.2C11.0296 25.2 8.18081 24.02 6.0804 21.9196C3.98 19.8192 2.8 16.9704 2.8 14C2.8 11.0296 3.98 8.18081 6.0804 6.0804C8.18081 3.98 11.0296 2.8 14 2.8C16.9704 2.8 19.8192 3.98 21.9196 6.0804C24.02 8.18081 25.2 11.0296 25.2 14Z"
        fill="black" />
</svg>