<svg width="44" height="47" viewBox="0 0 44 47" fill="none" xmlns="http://www.w3.org/2000/svg">
    <path fill-rule="evenodd" clip-rule="evenodd"
        d="M11 14.1C11 8.04327 15.9249 3.13333 22 3.13333C28.0751 3.13333 33 8.04327 33 14.1C33 16.0025 32.5141 17.7919 31.6592 19.3515C31.5367 19.4952 31.4425 19.6586 31.3792 19.8327C29.8016 22.3927 27.1991 24.2575 24.1413 24.859C24.1093 24.8641 24.0775 24.8702 24.046 24.8773C23.383 25.0016 22.6991 25.0667 22 25.0667C15.9249 25.0667 11 20.1567 11 14.1ZM36.1429 14.1C36.1429 16.3585 35.6102 18.4931 34.6633 20.3855L43.8033 36.841C44.0735 37.3275 44.0648 37.9203 43.7805 38.3987C43.4961 38.8771 42.9787 39.1693 42.421 39.1666L33.8897 39.1255L29.6353 46.2359C29.3357 46.7365 28.7822 47.03 28.1984 46.9976C27.6146 46.9652 27.0971 46.6123 26.8551 46.0816L22.0001 35.4328L17.1449 46.0816C16.9029 46.6123 16.3854 46.9652 15.8016 46.9976C15.2178 47.03 14.6643 46.7365 14.3647 46.2359L10.1103 39.1255L1.57903 39.1666C1.0209 39.1693 0.503216 38.8767 0.219001 38.3978C-0.0652143 37.9189 -0.0733092 37.3256 0.197734 36.8392L9.35052 20.4131C8.39498 18.5139 7.85714 16.3695 7.85714 14.1C7.85714 6.31278 14.1891 0 22 0C29.8109 0 36.1429 6.31278 36.1429 14.1ZM25.4957 27.766C28.3394 27.0452 30.8392 25.4653 32.7006 23.3199L39.7549 36.0204L33.9056 35.9922L33.9053 35.9922C33.3587 35.9895 32.8209 36.129 32.345 36.3968C31.8689 36.6647 31.4711 37.0517 31.191 37.5197L31.1908 37.52L28.4741 42.0604L23.7263 31.6469L25.4957 27.766ZM21.8459 28.1992L20.5802 30.9751C20.5731 30.9902 20.5662 31.0053 20.5595 31.0206L15.5259 42.0605L12.809 37.5197C12.5289 37.0517 12.1311 36.6647 11.655 36.3968C11.1791 36.129 10.6413 35.9895 10.0947 35.9922H10.0944L4.24922 36.0204L11.3157 23.3386C13.8775 26.2808 17.6417 28.1544 21.8459 28.1992ZM17.2857 14.1C17.2857 11.5043 19.3964 9.4 22 9.4C24.6036 9.4 26.7143 11.5043 26.7143 14.1C26.7143 16.6957 24.6036 18.8 22 18.8C19.3964 18.8 17.2857 16.6957 17.2857 14.1ZM22 6.26666C17.6606 6.26666 14.1429 9.77377 14.1429 14.1C14.1429 18.4262 17.6606 21.9333 22 21.9333C26.3394 21.9333 29.8571 18.4262 29.8571 14.1C29.8571 9.77377 26.3394 6.26666 22 6.26666Z"
        fill="white" />
</svg>