<svg width="28" height="20" viewBox="0 0 28 20" fill="none" xmlns="http://www.w3.org/2000/svg">
    <g id="upper-bar">
        <path
            d="M12 0H2C1.46957 0 0.960859 0.210714 0.585786 0.585786C0.210714 0.960859 0 1.46957 0 2C0 2.53043 0.210714 3.03914 0.585786 3.41421C0.960859 3.78929 1.46957 4 2 4H12C12.5304 4 13.0391 3.78929 13.4142 3.41421C13.7893 3.03914 14 2.53043 14 2C14 1.46957 13.7893 0.960859 13.4142 0.585786C13.0391 0.210714 12.5304 0 12 0Z"
            fill="black" />
    </g>
    <g id="middle-bar">
        <path
            d="M26 8H2C1.46957 8 0.960859 8.21071 0.585786 8.58579C0.210714 8.96086 0 9.46957 0 10C0 10.5304 0.210714 11.0391 0.585786 11.4142C0.960859 11.7893 1.46957 12 2 12H26C26.5304 12 27.0391 11.7893 27.4142 11.4142C27.7893 11.0391 28 10.5304 28 10C28 9.46957 27.7893 8.96086 27.4142 8.58579C27.0391 8.21071 26.5304 8 26 8Z"
            fill="black" />
    </g>
    <g id="lower-bar">
        <path
            d="M16 16H26C26.5304 16 27.0391 16.2107 27.4142 16.5858C27.7893 16.9609 28 17.4696 28 18C28 18.5304 27.7893 19.0391 27.4142 19.4142C27.0391 19.7893 26.5304 20 26 20H16C15.4696 20 14.9609 19.7893 14.5858 19.4142C14.2107 19.0391 14 18.5304 14 18C14 17.4696 14.2107 16.9609 14.5858 16.5858C14.9609 16.2107 15.4696 16 16 16Z"
            fill="black" />
    </g>
</svg>